<svg xmlns="http://www.w3.org/2000/svg" viewBox="0 0 320 320" width="320" height="320"><rect width="320" height="320" fill="#0B0C0F"/><defs>
<linearGradient id="goldV" gradientUnits="userSpaceOnUse" x1="0" y1="40" x2="0" y2="290">
 <stop offset="0%" stop-color="#FFF1B8"/><stop offset="18%" stop-color="#F4C84B"/>
 <stop offset="42%" stop-color="#D69A12"/><stop offset="60%" stop-color="#B6790A"/>
 <stop offset="78%" stop-color="#E0AE2A"/><stop offset="100%" stop-color="#8A5A06"/>
</linearGradient>
<radialGradient id="goldRim" gradientUnits="userSpaceOnUse" cx="160" cy="120" r="150">
 <stop offset="0%" stop-color="#FBE08A"/><stop offset="45%" stop-color="#E3AA20"/>
 <stop offset="80%" stop-color="#B07908"/><stop offset="100%" stop-color="#8A5A06"/>
</radialGradient>
<radialGradient id="hubG" gradientUnits="userSpaceOnUse" cx="154" cy="153" r="22">
 <stop offset="0%" stop-color="#FFF4C2"/><stop offset="55%" stop-color="#E6B12A"/><stop offset="100%" stop-color="#8A5A06"/>
</radialGradient>
<filter id="emboss" x="-20%" y="-20%" width="140%" height="140%">
 <feDropShadow dx="0" dy="2.2" stdDeviation="1.6" flood-color="#5A3A00" flood-opacity="0.45"/>
</filter><linearGradient id="ai" gradientUnits="userSpaceOnUse" x1="169.5" y1="85.1" x2="169.5" y2="234.9"><stop offset="0%" stop-color="#6E49EA"/><stop offset="50%" stop-color="#4870E2"/><stop offset="100%" stop-color="#1C9ED9"/></linearGradient></defs><g filter="url(#emboss)">
<line x1="254.0" y1="160.0" x2="284.0" y2="160.0" stroke="url(#goldV)" stroke-width="13" stroke-linecap="round"/>
<line x1="226.5" y1="93.5" x2="247.7" y2="72.3" stroke="url(#goldV)" stroke-width="13" stroke-linecap="round"/>
<line x1="160.0" y1="66.0" x2="160.0" y2="36.0" stroke="url(#goldV)" stroke-width="13" stroke-linecap="round"/>
<line x1="93.5" y1="93.5" x2="72.3" y2="72.3" stroke="url(#goldV)" stroke-width="13" stroke-linecap="round"/>
<line x1="66.0" y1="160.0" x2="36.0" y2="160.0" stroke="url(#goldV)" stroke-width="13" stroke-linecap="round"/>
<line x1="93.5" y1="226.5" x2="72.3" y2="247.7" stroke="url(#goldV)" stroke-width="13" stroke-linecap="round"/>
<line x1="160.0" y1="254.0" x2="160.0" y2="284.0" stroke="url(#goldV)" stroke-width="13" stroke-linecap="round"/>
<line x1="226.5" y1="226.5" x2="247.7" y2="247.7" stroke="url(#goldV)" stroke-width="13" stroke-linecap="round"/>
<circle cx="160" cy="160" r="96" fill="none" stroke="url(#goldRim)" stroke-width="13"/>
<line x1="150.5" y1="85.1" x2="150.5" y2="234.9" stroke="url(#goldV)" stroke-width="14" stroke-linecap="round"/>
<polyline points="108.5,118 149.5,160 108.5,202" fill="none" stroke="url(#goldV)" stroke-width="14" stroke-linecap="round" stroke-linejoin="round"/>
</g>
<g filter="url(#emboss)">
<line x1="169.5" y1="85.1" x2="169.5" y2="234.9" stroke="url(#ai)" stroke-width="14" stroke-linecap="round"/>
<polyline points="211.5,118 170.5,160 211.5,202" fill="none" stroke="url(#ai)" stroke-width="14" stroke-linecap="round" stroke-linejoin="round"/>
</g>
<circle cx="160" cy="160" r="17" fill="url(#hubG)" filter="url(#emboss)"/></svg>