<svg xmlns="http://www.w3.org/2000/svg" viewBox="0 0 304 302" width="304" height="302">
<rect width="304" height="302" fill="#0B0C0F"/>
<g transform="translate(66.8,15) scale(0.5312)"><defs>
<linearGradient id="goldV" gradientUnits="userSpaceOnUse" x1="0" y1="40" x2="0" y2="290">
 <stop offset="0%" stop-color="#FFF1B8"/><stop offset="18%" stop-color="#F4C84B"/>
 <stop offset="42%" stop-color="#D69A12"/><stop offset="60%" stop-color="#B6790A"/>
 <stop offset="78%" stop-color="#E0AE2A"/><stop offset="100%" stop-color="#8A5A06"/>
</linearGradient>
<radialGradient id="goldRim" gradientUnits="userSpaceOnUse" cx="160" cy="120" r="150">
 <stop offset="0%" stop-color="#FBE08A"/><stop offset="45%" stop-color="#E3AA20"/>
 <stop offset="80%" stop-color="#B07908"/><stop offset="100%" stop-color="#8A5A06"/>
</radialGradient>
<radialGradient id="hubG" gradientUnits="userSpaceOnUse" cx="154" cy="153" r="22">
 <stop offset="0%" stop-color="#FFF4C2"/><stop offset="55%" stop-color="#E6B12A"/><stop offset="100%" stop-color="#8A5A06"/>
</radialGradient>
<filter id="emboss" x="-20%" y="-20%" width="140%" height="140%">
 <feDropShadow dx="0" dy="2.2" stdDeviation="1.6" flood-color="#5A3A00" flood-opacity="0.45"/>
</filter><linearGradient id="ai" gradientUnits="userSpaceOnUse" x1="169.5" y1="85.1" x2="169.5" y2="234.9"><stop offset="0%" stop-color="#6E49EA"/><stop offset="50%" stop-color="#4870E2"/><stop offset="100%" stop-color="#1C9ED9"/></linearGradient></defs><g filter="url(#emboss)">
<line x1="254.0" y1="160.0" x2="284.0" y2="160.0" stroke="url(#goldV)" stroke-width="13" stroke-linecap="round"/>
<line x1="226.5" y1="93.5" x2="247.7" y2="72.3" stroke="url(#goldV)" stroke-width="13" stroke-linecap="round"/>
<line x1="160.0" y1="66.0" x2="160.0" y2="36.0" stroke="url(#goldV)" stroke-width="13" stroke-linecap="round"/>
<line x1="93.5" y1="93.5" x2="72.3" y2="72.3" stroke="url(#goldV)" stroke-width="13" stroke-linecap="round"/>
<line x1="66.0" y1="160.0" x2="36.0" y2="160.0" stroke="url(#goldV)" stroke-width="13" stroke-linecap="round"/>
<line x1="93.5" y1="226.5" x2="72.3" y2="247.7" stroke="url(#goldV)" stroke-width="13" stroke-linecap="round"/>
<line x1="160.0" y1="254.0" x2="160.0" y2="284.0" stroke="url(#goldV)" stroke-width="13" stroke-linecap="round"/>
<line x1="226.5" y1="226.5" x2="247.7" y2="247.7" stroke="url(#goldV)" stroke-width="13" stroke-linecap="round"/>
<circle cx="160" cy="160" r="96" fill="none" stroke="url(#goldRim)" stroke-width="13"/>
<line x1="150.5" y1="85.1" x2="150.5" y2="234.9" stroke="url(#goldV)" stroke-width="14" stroke-linecap="round"/>
<polyline points="108.5,118 149.5,160 108.5,202" fill="none" stroke="url(#goldV)" stroke-width="14" stroke-linecap="round" stroke-linejoin="round"/>
</g>
<g filter="url(#emboss)">
<line x1="169.5" y1="85.1" x2="169.5" y2="234.9" stroke="url(#ai)" stroke-width="14" stroke-linecap="round"/>
<polyline points="211.5,118 170.5,160 211.5,202" fill="none" stroke="url(#ai)" stroke-width="14" stroke-linecap="round" stroke-linejoin="round"/>
</g>
<circle cx="160" cy="160" r="17" fill="url(#hubG)" filter="url(#emboss)"/></g>
<g transform="translate(20.0,209.0) scale(0.5435)">
<g fill="#FFFFFF" transform="translate(10,93.6)"><path transform="translate(0.00,0) scale(0.12000,-0.12000)" d="M251 124Q300 124 320.0 140.0Q340 156 340 176Q340 196 324.0 207.5Q308 219 279 229L237 243Q179 263 134.5 285.5Q90 308 65.0 344.0Q40 380 40 438Q40 523 105.5 574.0Q171 625 289 625Q347 625 392.0 614.0Q437 603 463.0 580.5Q489 558 489 523Q489 498 477.0 479.0Q465 460 448 447Q426 461 389.0 471.5Q352 482 308 482Q263 482 242.0 469.5Q221 457 221 438Q221 423 234.5 413.5Q248 404 273 396L326 379Q421 349 471.0 301.5Q521 254 521 174Q521 89 453.5 35.5Q386 -18 257 -18Q196 -18 147.0 -5.0Q98 8 69.0 34.0Q40 60 40 97Q40 126 57.0 146.5Q74 167 94 178Q122 156 162.5 140.0Q203 124 251 124Z"/>
<path transform="translate(68.12,0) scale(0.12000,-0.12000)" d="M668 304Q668 200 626.5 128.0Q585 56 513.5 19.0Q442 -18 351 -18Q260 -18 188.5 19.0Q117 56 76.0 128.0Q35 200 35 304Q35 408 77.0 479.5Q119 551 190.5 588.0Q262 625 351 625Q440 625 512.0 588.0Q584 551 626.0 479.5Q668 408 668 304ZM488 304Q488 393 451.0 438.5Q414 484 351 484Q290 484 252.5 439.0Q215 394 215 304Q215 213 252.5 168.0Q290 123 352 123Q414 123 451.0 168.0Q488 213 488 304Z"/>
<path transform="translate(154.48,0) scale(0.12000,-0.12000)" d="M155 326 359 340Q436 255 498.5 188.0Q561 121 598 81Q598 38 569.0 13.5Q540 -11 502 -11Q461 -11 435.0 9.5Q409 30 385 58ZM360 265 131 248 448 612Q516 612 545.5 586.5Q575 561 575 526Q575 500 562.0 477.0Q549 454 520 425ZM65 442H240V1Q229 -2 206.0 -5.0Q183 -8 159 -8Q107 -8 86.0 10.5Q65 29 65 75ZM240 211H65V608Q77 610 100.5 613.5Q124 617 146 617Q196 617 218.0 600.0Q240 583 240 534Z"/>
<path transform="translate(230.28,0) scale(0.12000,-0.12000)" d="M155 326 359 340Q436 255 498.5 188.0Q561 121 598 81Q598 38 569.0 13.5Q540 -11 502 -11Q461 -11 435.0 9.5Q409 30 385 58ZM360 265 131 248 448 612Q516 612 545.5 586.5Q575 561 575 526Q575 500 562.0 477.0Q549 454 520 425ZM65 442H240V1Q229 -2 206.0 -5.0Q183 -8 159 -8Q107 -8 86.0 10.5Q65 29 65 75ZM240 211H65V608Q77 610 100.5 613.5Q124 617 146 617Q196 617 218.0 600.0Q240 583 240 534Z"/>
<path transform="translate(306.08,0) scale(0.12000,-0.12000)" d="M320 459H314Q305 431 294.0 398.0Q283 365 271.0 328.5Q259 292 248 253L226 140Q220 120 215.5 101.0Q211 82 206.5 65.0Q202 48 198.0 32.0Q194 16 190 1Q177 -3 161.0 -7.0Q145 -11 123 -11Q73 -11 48.0 6.5Q23 24 23 55Q23 69 27.0 83.0Q31 97 36 116Q44 148 60.0 198.5Q76 249 95.5 307.5Q115 366 134.5 422.0Q154 478 170.0 522.5Q186 567 194 588Q211 598 246.0 607.0Q281 616 315 616Q365 616 404.0 601.5Q443 587 453 555Q471 504 491.5 435.5Q512 367 533.5 292.5Q555 218 575.0 147.5Q595 77 610 21Q598 8 574.0 -1.0Q550 -10 517 -10Q468 -10 449.0 6.5Q430 23 421 57L396 153L376 256Q366 295 356.0 331.0Q346 367 337.0 399.5Q328 432 320 459ZM151 126 220 261H440L461 126Z"/>
<path transform="translate(383.32,0) scale(0.12000,-0.12000)" d="M65 400H226Q230 354 231.5 312.0Q233 270 233.0 232.5Q233 195 233 159V0Q223 -2 200.5 -5.0Q178 -8 155 -8Q105 -8 85.0 9.5Q65 27 65 72ZM614 210H453Q447 280 446.5 339.0Q446 398 446 451V609Q457 611 479.0 614.0Q501 617 524 617Q574 617 594.0 599.5Q614 582 614 537ZM614 264V21Q600 8 573.5 0.0Q547 -8 510 -8Q473 -8 440.0 3.0Q407 14 386 56L287 258Q277 279 268.5 297.5Q260 316 252.0 336.0Q244 356 234 380L65 343V575Q79 595 108.0 605.0Q137 615 170 615Q207 615 240.5 603.5Q274 592 294 551L394 349Q404 329 412.5 310.0Q421 291 429.5 271.0Q438 251 447 227Z"/></g>
<g fill="#9AA1B2" transform="translate(10,133.6)"><path transform="translate(0.00,0) scale(0.04000,-0.04000)" d="M77 264 179 255V2Q173 0 160.0 -3.0Q147 -6 132 -6Q104 -6 90.5 5.0Q77 16 77 41ZM179 204 77 213V649Q83 651 96.0 654.0Q109 657 123 657Q152 657 165.5 646.5Q179 636 179 610Z"/>
<path transform="translate(14.24,0) scale(0.04000,-0.04000)" d="M112 177 107 252 391 292Q388 339 358.0 370.5Q328 402 273 402Q217 402 180.0 362.0Q143 322 142 248L144 210Q152 139 195.0 103.5Q238 68 308 68Q350 68 385.0 81.0Q420 94 441 109Q453 102 460.5 90.0Q468 78 468 64Q468 42 446.0 24.0Q424 6 386.5 -4.0Q349 -14 302 -14Q225 -14 167.0 14.5Q109 43 77.0 99.5Q45 156 45 238Q45 297 62.5 342.5Q80 388 111.0 419.0Q142 450 184.0 466.0Q226 482 274 482Q337 482 385.5 455.5Q434 429 461.0 382.0Q488 335 488 275Q488 250 476.0 238.5Q464 227 442 224Z"/>
<path transform="translate(51.32,0) scale(0.04000,-0.04000)" d="M264 16Q205 16 155.5 38.5Q106 61 76.0 112.5Q46 164 46 248Q46 325 76.0 377.0Q106 429 159.5 455.5Q213 482 283 482Q332 482 373.0 469.5Q414 457 440 440Q456 429 466.0 415.0Q476 401 476 381V71H375V375Q360 384 338.0 391.5Q316 399 285 399Q224 399 186.5 361.5Q149 324 149 249Q149 165 186.0 131.0Q223 97 278 97Q319 97 344.0 111.0Q369 125 385 141L390 55Q373 40 341.0 28.0Q309 16 264 16ZM376 -8V93H476V-13Q476 -80 446.0 -121.5Q416 -163 364.5 -182.0Q313 -201 249 -201Q198 -201 161.0 -190.5Q124 -180 108 -171Q76 -152 76 -122Q76 -105 83.5 -93.5Q91 -82 101 -76Q124 -92 162.0 -104.5Q200 -117 243 -117Q307 -117 341.5 -91.0Q376 -65 376 -8Z"/>
<path transform="translate(77.08,0) scale(0.04000,-0.04000)" d="M517 234Q517 159 488.0 103.0Q459 47 406.0 16.5Q353 -14 281 -14Q209 -14 156.0 16.5Q103 47 74.0 102.5Q45 158 45 234Q45 310 74.5 365.5Q104 421 157.5 451.5Q211 482 281 482Q352 482 405.0 451.5Q458 421 487.5 365.5Q517 310 517 234ZM281 399Q221 399 185.5 355.0Q150 311 150 234Q150 156 184.5 112.5Q219 69 281 69Q343 69 377.5 113.0Q412 157 412 234Q412 311 377.0 355.0Q342 399 281 399Z"/>
<path transform="translate(103.52,0) scale(0.04000,-0.04000)" d="M69 175V260H172V178Q172 120 202.5 94.5Q233 69 287 69Q323 69 348.0 76.5Q373 84 386 92V260H489V88Q489 66 482.0 52.0Q475 38 454 25Q429 10 386.0 -2.0Q343 -14 286 -14Q219 -14 170.0 6.0Q121 26 95.0 68.0Q69 110 69 175ZM489 210H386V466Q393 468 406.0 471.0Q419 474 433 474Q462 474 475.5 463.5Q489 453 489 426ZM172 210H69V466Q76 468 89.0 471.0Q102 474 117 474Q145 474 158.5 463.5Q172 453 172 426Z"/>
<path transform="translate(129.84,0) scale(0.04000,-0.04000)" d="M425 477Q447 477 461.0 466.5Q475 456 475 434Q475 420 464.0 383.0Q453 346 435.5 296.5Q418 247 397.0 193.0Q376 139 354.5 90.0Q333 41 315 7Q308 1 291.5 -3.0Q275 -7 256 -7Q234 -7 217.0 -0.5Q200 6 194 19Q183 40 166.0 78.0Q149 116 129.5 165.0Q110 214 90.5 266.5Q71 319 54.5 367.0Q38 415 28 452Q36 463 51.0 470.0Q66 477 82 477Q104 477 117.5 467.0Q131 457 139 431L195 258Q203 234 214.5 202.0Q226 170 237.0 139.0Q248 108 255 87H259Q294 182 325.5 278.5Q357 375 380 467Q399 477 425 477Z"/>
<path transform="translate(154.16,0) scale(0.04000,-0.04000)" d="M112 177 107 252 391 292Q388 339 358.0 370.5Q328 402 273 402Q217 402 180.0 362.0Q143 322 142 248L144 210Q152 139 195.0 103.5Q238 68 308 68Q350 68 385.0 81.0Q420 94 441 109Q453 102 460.5 90.0Q468 78 468 64Q468 42 446.0 24.0Q424 6 386.5 -4.0Q349 -14 302 -14Q225 -14 167.0 14.5Q109 43 77.0 99.5Q45 156 45 238Q45 297 62.5 342.5Q80 388 111.0 419.0Q142 450 184.0 466.0Q226 482 274 482Q337 482 385.5 455.5Q434 429 461.0 382.0Q488 335 488 275Q488 250 476.0 238.5Q464 227 442 224Z"/>
<path transform="translate(179.24,0) scale(0.04000,-0.04000)" d="M172 368V221H69V370Q69 394 79.5 409.5Q90 425 111 439Q139 457 184.5 469.0Q230 481 284 481Q371 481 371 432Q371 420 367.5 410.0Q364 400 359 392Q349 394 333.5 396.0Q318 398 302 398Q261 398 227.5 389.5Q194 381 172 368ZM69 264 172 255V2Q165 0 152.5 -3.0Q140 -6 125 -6Q97 -6 83.0 5.0Q69 16 69 41Z"/>
<path transform="translate(198.80,0) scale(0.04000,-0.04000)" d="M489 307V208H386V303Q386 353 358.0 376.0Q330 399 283 399Q248 399 220.0 390.0Q192 381 172 370V208H69V372Q69 395 78.5 409.5Q88 424 109 437Q137 454 182.0 468.0Q227 482 283 482Q380 482 434.5 438.5Q489 395 489 307ZM69 260H172V2Q165 0 152.5 -3.0Q140 -6 125 -6Q97 -6 83.0 5.0Q69 16 69 41ZM386 260H489V2Q482 0 469.0 -3.0Q456 -6 442 -6Q413 -6 399.5 5.0Q386 16 386 41Z"/>
<path transform="translate(225.12,0) scale(0.04000,-0.04000)" d="M245 66Q281 66 306.5 73.5Q332 81 344 88V217L233 206Q187 202 163.5 185.5Q140 169 140 137Q140 104 166.0 85.0Q192 66 245 66ZM242 482Q335 482 389.5 441.5Q444 401 444 314V81Q444 58 434.0 45.0Q424 32 406 22Q380 7 338.5 -3.5Q297 -14 245 -14Q148 -14 93.5 23.5Q39 61 39 134Q39 200 82.0 235.5Q125 271 204 278L344 292V315Q344 360 315.0 380.0Q286 400 236 400Q196 400 158.5 389.0Q121 378 92 364Q83 372 76.0 383.5Q69 395 69 408Q69 439 103 455Q131 468 167.5 475.0Q204 482 242 482Z"/>
<path transform="translate(249.52,0) scale(0.04000,-0.04000)" d="M63 611Q63 637 81.0 654.0Q99 671 125 671Q153 671 170.0 654.0Q187 637 187 611Q187 586 170.0 568.5Q153 551 125 551Q99 551 81.0 568.5Q63 586 63 611ZM74 264H177V2Q170 0 157.5 -3.0Q145 -6 130 -6Q102 -6 88.0 5.0Q74 16 74 41ZM177 213H74V465Q81 467 94.0 469.5Q107 472 122 472Q150 472 163.5 461.5Q177 451 177 425Z"/>
<path transform="translate(263.56,0) scale(0.04000,-0.04000)" d="M77 264 179 255V2Q173 0 160.0 -3.0Q147 -6 132 -6Q104 -6 90.5 5.0Q77 16 77 41ZM179 204 77 213V649Q83 651 96.0 654.0Q109 657 123 657Q152 657 165.5 646.5Q179 636 179 610Z"/></g>
</g></svg>